<svg width="635" height="652" viewBox="0 0 635 652" fill="none" xmlns="http://www.w3.org/2000/svg">
<path d="M369.8 326L632.3 13.1C636.7 7.90001 633 0 626.2 0H546.4C541.7 0 537.2 2.1 534.1 5.7L317.6 263.8L101.1 5.7C98.1 2.1 93.5999 0 88.7999 0H8.99996C2.19996 0 -1.50005 7.90001 2.89995 13.1L265.4 326L2.89995 638.9C1.91431 640.059 1.28199 641.477 1.07802 642.984C0.87406 644.492 1.10703 646.027 1.74929 647.406C2.39155 648.785 3.41613 649.951 4.70136 650.766C5.98659 651.58 7.4785 652.008 8.99996 652H88.7999C93.4999 652 98 649.9 101.1 646.3L317.6 388.2L534.1 646.3C537.1 649.9 541.6 652 546.4 652H626.2C633 652 636.7 644.1 632.3 638.9L369.8 326Z" fill="#3098D9"/>
</svg>
