<svg width="24" height="24" viewBox="0 0 24 24" fill="none" xmlns="http://www.w3.org/2000/svg">
<path d="M22 12L17 16V13H8V11H17V8L22 12Z" fill="#818181"/>
<path d="M10.9988 2.99906C12.1813 2.99578 13.3526 3.22717 14.445 3.67982C15.5375 4.13247 16.5292 4.79739 17.3628 5.63606L15.9488 7.05006C14.6268 5.72806 12.8688 4.99906 10.9988 4.99906C9.12879 4.99906 7.37079 5.72806 6.04879 7.05006C4.72679 8.37206 3.99779 10.1301 3.99779 12.0001C3.99779 13.8701 4.72679 15.6281 6.04879 16.9501C7.37079 18.2721 9.12879 19.0011 10.9988 19.0011C12.8688 19.0011 14.6268 18.2721 15.9488 16.9501L17.3628 18.3641C15.6638 20.0641 13.4038 21.0011 10.9988 21.0011C8.59379 21.0011 6.33379 20.0641 4.63479 18.3641C2.93479 16.6651 1.99779 14.4051 1.99779 12.0001C1.99779 9.59506 2.93479 7.33506 4.63479 5.63606C5.4684 4.79739 6.46013 4.13247 7.55254 3.67982C8.64495 3.22717 9.81632 2.99578 10.9988 2.99906V2.99906Z" fill="#818181"/>
</svg>
