<svg width="24" height="24" viewBox="0 0 24 24" fill="none" xmlns="http://www.w3.org/2000/svg">
<path d="M12 1.92859C12.8229 1.92851 13.6144 2.24402 14.2116 2.81011C14.8088 3.3762 15.1661 4.14976 15.21 4.97145L15.2143 5.14287H19.9286C20.0915 5.14292 20.2483 5.2048 20.3673 5.31599C20.4863 5.42719 20.5587 5.57942 20.5698 5.74191C20.5809 5.90441 20.5299 6.06507 20.4271 6.19142C20.3243 6.31777 20.1774 6.40039 20.016 6.42259L19.9286 6.42859H19.0209L17.9752 19.3312C17.9099 20.1361 17.5441 20.8869 16.9504 21.4344C16.3567 21.9819 15.5787 22.2858 14.7712 22.2857H9.22887C8.42131 22.2858 7.64332 21.9819 7.04965 21.4344C6.45597 20.8869 6.09013 20.1361 6.02487 19.3312L4.9783 6.42859H4.07145C3.9161 6.42858 3.76601 6.37232 3.64893 6.27022C3.53186 6.16811 3.45572 6.02706 3.43459 5.87316L3.42859 5.78573C3.4286 5.63038 3.48485 5.4803 3.58696 5.36322C3.68907 5.24614 3.83011 5.17 3.98402 5.14887L4.07145 5.14287H8.78573C8.78573 4.29039 9.12438 3.47283 9.72717 2.87003C10.33 2.26724 11.1475 1.92859 12 1.92859ZM17.7317 6.42859H6.2683L7.3063 19.2274C7.3455 19.7104 7.56505 20.1609 7.92128 20.4893C8.27752 20.8178 8.74434 21.0001 9.22887 21H14.7712C15.2557 21.0001 15.7225 20.8178 16.0787 20.4893C16.435 20.1609 16.6545 19.7104 16.6937 19.2274L17.7309 6.42859H17.7317ZM10.0714 9.64287C10.2268 9.64288 10.3769 9.69914 10.494 9.80125C10.611 9.90335 10.6872 10.0444 10.7083 10.1983L10.7143 10.2857V17.1429C10.7143 17.3058 10.6524 17.4625 10.5412 17.5816C10.43 17.7006 10.2778 17.7729 10.1153 17.784C9.95276 17.7951 9.79211 17.7441 9.66576 17.6414C9.53941 17.5386 9.45679 17.3917 9.43459 17.2303L9.42859 17.1429V10.2857C9.42859 10.1152 9.49632 9.95172 9.61688 9.83116C9.73744 9.7106 9.90095 9.64287 10.0714 9.64287ZM13.9286 9.64287C14.0839 9.64288 14.234 9.69914 14.3511 9.80125C14.4682 9.90335 14.5443 10.0444 14.5654 10.1983L14.5714 10.2857V17.1429C14.5714 17.3058 14.5095 17.4625 14.3983 17.5816C14.2871 17.7006 14.1349 17.7729 13.9724 17.784C13.8099 17.7951 13.6493 17.7441 13.5229 17.6414C13.3966 17.5386 13.3139 17.3917 13.2917 17.2303L13.2857 17.1429V10.2857C13.2857 10.1152 13.3535 9.95172 13.474 9.83116C13.5946 9.7106 13.7581 9.64287 13.9286 9.64287ZM12 3.2143C11.5113 3.21424 11.0409 3.3997 10.6837 3.73319C10.3265 4.06668 10.1092 4.52334 10.0757 5.01087L10.0714 5.14287H13.9286L13.9243 5.01087C13.8909 4.52334 13.6736 4.06668 13.3164 3.73319C12.9592 3.3997 12.4887 3.21424 12 3.2143Z" fill="#818181"/>
</svg>
