<svg width="24" height="24" viewBox="0 0 24 24" fill="none" xmlns="http://www.w3.org/2000/svg">
<path d="M19.425 3C21.3307 3 22.89 4.52614 22.9945 6.44829L23 6.65657V17.3434C23 19.2939 21.5081 20.8869 19.6271 20.9949L19.425 21H4.575C2.66925 21 1.11 19.4739 1.0055 17.5517L1 17.3434V6.65657C1 4.70614 2.49188 3.11314 4.3715 3.00514L4.575 3H19.425ZM19.2188 4.28571H4.78125C3.508 4.28571 2.46575 5.30529 2.3805 6.59614L2.375 6.76586V17.2341C2.375 18.5469 3.365 19.6217 4.61625 19.7091L4.78125 19.7143H19.2188C20.492 19.7143 21.5343 18.6947 21.6195 17.4051L21.625 17.2329V6.76714C21.625 5.45443 20.635 4.37957 19.3837 4.29214L19.2188 4.28571ZM7.67013 8.14543C8.52262 8.14543 9.24862 8.27014 9.844 8.52986C10.2111 8.68929 10.3582 9.075 10.174 9.39257C10.0759 9.54824 9.91899 9.66389 9.73421 9.71672C9.54943 9.76956 9.35018 9.75574 9.17575 9.678C8.80725 9.51729 8.30675 9.43114 7.67013 9.43114C6.25937 9.43114 5.23637 10.5009 5.23637 12.0026C5.23637 13.4413 6.35425 14.5714 7.67013 14.5714C8.491 14.5714 9.04787 14.1201 9.12762 13.7061L9.13863 13.6033V12.6441L8.6175 12.6429C8.20775 12.6429 7.875 12.3549 7.875 12C7.875 11.685 8.13762 11.4214 8.48412 11.3674L8.61888 11.3571L9.88112 11.3584C10.0494 11.3538 10.2142 11.4037 10.3476 11.4998C10.4809 11.5959 10.5746 11.7322 10.6126 11.8856L10.625 12.0013V13.6033C10.625 14.7309 9.40675 15.8571 7.67013 15.8571C5.477 15.8571 3.75 14.1111 3.75 12.0013C3.75 9.84 5.36837 8.14543 7.67013 8.14543ZM13.375 8.14286C13.5359 8.14281 13.6917 8.19553 13.8154 8.29186C13.939 8.38818 14.0225 8.522 14.0515 8.67L14.0625 8.78571V15.2143C14.0628 15.3749 13.9988 15.5299 13.8831 15.6486C13.7673 15.7673 13.6082 15.8412 13.4371 15.8557C13.266 15.8702 13.0953 15.8243 12.9586 15.727C12.8219 15.6297 12.7291 15.4881 12.6985 15.33L12.6875 15.2143V8.78571C12.6875 8.61522 12.7599 8.4517 12.8889 8.33115C13.0178 8.21059 13.1927 8.14286 13.375 8.14286ZM19.5625 8.14286C19.7343 8.14256 19.9 8.20242 20.027 8.31065C20.1539 8.41888 20.2329 8.56764 20.2485 8.72763C20.264 8.88762 20.2149 9.04724 20.1108 9.17507C20.0068 9.3029 19.8553 9.38967 19.6863 9.41829L19.5625 9.42857H17.5V12H19.5625C19.7343 11.9997 19.9 12.0596 20.027 12.1678C20.1539 12.276 20.2329 12.4248 20.2485 12.5848C20.264 12.7448 20.2149 12.9044 20.1108 13.0322C20.0068 13.16 19.8553 13.2468 19.6863 13.2754L19.5625 13.2857H17.5V15.2143C17.5003 15.3749 17.4363 15.5299 17.3206 15.6486C17.2048 15.7673 17.0457 15.8412 16.8746 15.8557C16.7035 15.8702 16.5328 15.8243 16.3961 15.727C16.2594 15.6297 16.1666 15.4881 16.136 15.33L16.125 15.2143V8.78571C16.125 8.61522 16.1974 8.4517 16.3264 8.33115C16.4553 8.21059 16.6302 8.14286 16.8125 8.14286H19.5625Z" fill="#818181"/>
</svg>
