<svg width="22" height="22" viewBox="0 0 22 22" fill="none" xmlns="http://www.w3.org/2000/svg">
<path d="M11 20.625C8.44729 20.625 5.99913 19.6109 4.1941 17.8059C2.38906 16.0009 1.375 13.5527 1.375 11C1.375 8.44729 2.38906 5.99913 4.1941 4.1941C5.99913 2.38906 8.44729 1.375 11 1.375C13.5527 1.375 16.0009 2.38906 17.8059 4.1941C19.6109 5.99913 20.625 8.44729 20.625 11C20.625 13.5527 19.6109 16.0009 17.8059 17.8059C16.0009 19.6109 13.5527 20.625 11 20.625ZM11 22C13.9174 22 16.7153 20.8411 18.7782 18.7782C20.8411 16.7153 22 13.9174 22 11C22 8.08262 20.8411 5.28473 18.7782 3.22183C16.7153 1.15893 13.9174 0 11 0C8.08262 0 5.28473 1.15893 3.22183 3.22183C1.15893 5.28473 0 8.08262 0 11C0 13.9174 1.15893 16.7153 3.22183 18.7782C5.28473 20.8411 8.08262 22 11 22Z" fill="#818181"/>
<path d="M5.89183 13.1546C6.04973 13.0635 6.23738 13.0388 6.4135 13.0859C6.58962 13.1331 6.73978 13.2483 6.83095 13.4062C7.25323 14.1382 7.8609 14.746 8.59278 15.1684C9.32466 15.5909 10.1549 15.813 11 15.8125C11.845 15.813 12.6752 15.5909 13.4071 15.1684C14.139 14.746 14.7467 14.1382 15.169 13.4062C15.2138 13.3274 15.2737 13.2583 15.3454 13.2027C15.417 13.1472 15.499 13.1063 15.5865 13.0826C15.674 13.0588 15.7653 13.0526 15.8552 13.0643C15.9451 13.076 16.0318 13.1053 16.1104 13.1507C16.1889 13.196 16.2577 13.2564 16.3127 13.3284C16.3678 13.4005 16.4081 13.4827 16.4313 13.5703C16.4544 13.658 16.4601 13.7494 16.4478 13.8392C16.4355 13.929 16.4056 14.0155 16.3597 14.0937C15.8167 15.0347 15.0355 15.8161 14.0946 16.3592C13.1537 16.9023 12.0863 17.188 11 17.1875C9.91356 17.188 8.8462 16.9023 7.9053 16.3592C6.9644 15.8161 6.18316 15.0347 5.6402 14.0937C5.54904 13.9358 5.52433 13.7482 5.57152 13.5721C5.61871 13.396 5.73393 13.2458 5.89183 13.1546ZM9.62495 8.9375C9.62495 10.076 9.00895 11 8.24995 11C7.49095 11 6.87495 10.076 6.87495 8.9375C6.87495 7.799 7.49095 6.875 8.24995 6.875C9.00895 6.875 9.62495 7.799 9.62495 8.9375ZM15.125 8.9375C15.125 10.076 14.509 11 13.75 11C12.991 11 12.375 10.076 12.375 8.9375C12.375 7.799 12.991 6.875 13.75 6.875C14.509 6.875 15.125 7.799 15.125 8.9375Z" fill="#818181"/>
</svg>
