<svg width="24" height="24" viewBox="0 0 24 24" fill="none" xmlns="http://www.w3.org/2000/svg">
<path d="M11 13.5C10.2583 13.5 9.5333 13.2801 8.91661 12.868C8.29993 12.456 7.81928 11.8703 7.53545 11.1851C7.25162 10.4998 7.17736 9.74584 7.32206 9.01841C7.46675 8.29098 7.8239 7.6228 8.34835 7.09835C8.8728 6.5739 9.54098 6.21675 10.2684 6.07206C10.9958 5.92736 11.7498 6.00162 12.4351 6.28545C13.1203 6.56928 13.706 7.04993 14.118 7.66661C14.5301 8.2833 14.75 9.00832 14.75 9.75C14.7488 10.7442 14.3533 11.6973 13.6503 12.4003C12.9473 13.1033 11.9942 13.4988 11 13.5V13.5ZM11 7.5C10.555 7.5 10.12 7.63196 9.74997 7.8792C9.37996 8.12643 9.09157 8.47783 8.92127 8.88896C8.75098 9.3001 8.70642 9.7525 8.79323 10.189C8.88005 10.6254 9.09434 11.0263 9.40901 11.341C9.72368 11.6557 10.1246 11.87 10.561 11.9568C10.9975 12.0436 11.4499 11.999 11.861 11.8287C12.2722 11.6584 12.6236 11.37 12.8708 11C13.118 10.63 13.25 10.195 13.25 9.75C13.2494 9.15345 13.0122 8.5815 12.5903 8.15967C12.1685 7.73784 11.5966 7.5006 11 7.5V7.5Z" fill="#818181"/>
<path d="M11 22.5L4.67301 15.0383C4.58509 14.9262 4.49809 14.8135 4.41201 14.7C3.33124 13.2763 2.74739 11.5374 2.75001 9.75C2.75001 7.56196 3.6192 5.46354 5.16638 3.91637C6.71355 2.36919 8.81197 1.5 11 1.5C13.188 1.5 15.2865 2.36919 16.8336 3.91637C18.3808 5.46354 19.25 7.56196 19.25 9.75C19.2526 11.5366 18.669 13.2747 17.5888 14.6978L17.588 14.7C17.588 14.7 17.363 14.9955 17.3293 15.0353L11 22.5ZM5.60901 13.7963C5.61051 13.7963 5.78451 14.0272 5.82426 14.0767L11 20.181L16.1825 14.0685C16.2155 14.0272 16.391 13.7948 16.3918 13.794C17.2746 12.6308 17.7517 11.2103 17.75 9.75C17.75 7.95979 17.0388 6.2429 15.773 4.97703C14.5071 3.71116 12.7902 3 11 3C9.2098 3 7.49291 3.71116 6.22704 4.97703C4.96117 6.2429 4.25001 7.95979 4.25001 9.75C4.24844 11.2112 4.72609 12.6326 5.60976 13.7963H5.60901Z" fill="#818181"/>
</svg>
