<svg width="56" height="56" viewBox="0 0 56 56" fill="none" xmlns="http://www.w3.org/2000/svg">
<path d="M55.7594 36.3671L48.1141 18.3968C46.4844 13.8906 42.6016 10.6312 37.9422 9.73431C39.9109 8.57493 43.0063 5.80775 41.6828 0.732747C41.5406 0.185872 40.9062 -0.131315 40.3703 0.0655597L18.2547 8.34525C3.92656 13.4968 0 26.1296 0 43.6187V52.4999C0 54.4359 1.56406 55.9999 3.5 55.9999H29.3344C31.9375 55.9999 33.6328 53.2655 32.4625 50.9359L28 41.9999V41.9234C23.0125 41.5405 18.7469 38.5655 16.5922 34.3109C16.4172 33.9718 16.4937 33.5562 16.7672 33.2937L18.0906 31.9702C18.5172 31.5437 19.25 31.6749 19.5016 32.2327C21.1203 35.9187 24.7734 38.5109 29.0609 38.5109C30.9422 38.5109 32.6703 37.953 34.1797 37.0671L39.2109 44.0562C39.8672 44.9749 40.9281 45.5109 42.0547 45.5109H47.5562C48.4859 45.5109 49.3719 45.139 50.0281 44.4827L54.9828 40.1296C55.9563 39.1343 56.2625 37.6577 55.7594 36.3671ZM35.875 24.4999C34.4203 24.4999 33.25 23.3296 33.25 21.8749C33.25 20.4202 34.4203 19.2499 35.875 19.2499C37.3297 19.2499 38.5 20.4202 38.5 21.8749C38.5 23.3296 37.3297 24.4999 35.875 24.4999Z" fill="#38A6FF"/>
</svg>
