<svg width="112" height="112" viewBox="0 0 112 112" fill="none" xmlns="http://www.w3.org/2000/svg">
<path d="M111.519 72.7343L96.2281 36.7937C92.9688 27.7812 85.2031 21.2625 75.8844 19.4687C79.8219 17.15 86.0125 11.6156 83.3656 1.46562C83.0813 0.371866 81.8125 -0.262508 80.7406 0.131242L36.5094 16.6906C7.85312 26.9937 0 52.2593 0 87.2375V105C0 108.872 3.12812 112 7 112H58.6688C63.875 112 67.2656 106.531 64.925 101.872L56 84V83.8468C46.025 83.0812 37.4937 77.1312 33.1844 68.6218C32.8344 67.9437 32.9875 67.1125 33.5344 66.5875L36.1812 63.9406C37.0344 63.0875 38.5 63.35 39.0031 64.4656C42.2406 71.8375 49.5469 77.0218 58.1219 77.0218C61.8844 77.0218 65.3406 75.9062 68.3594 74.1343L78.4219 88.1125C79.7344 89.95 81.8562 91.0218 84.1094 91.0218H95.1125C96.9719 91.0218 98.7438 90.2781 100.056 88.9656L109.966 80.2593C111.913 78.2687 112.525 75.3156 111.519 72.7343ZM71.75 49C68.8406 49 66.5 46.6594 66.5 43.75C66.5 40.8406 68.8406 38.5 71.75 38.5C74.6594 38.5 77 40.8406 77 43.75C77 46.6594 74.6594 49 71.75 49Z" fill="#38A6FF"/>
</svg>
