<svg width="56" height="56" viewBox="0 0 56 56" fill="none" xmlns="http://www.w3.org/2000/svg">
<path d="M55.7594 36.3603L48.1141 18.39C46.4844 13.8837 42.6016 10.6243 37.9422 9.72747C39.9109 8.5681 43.0063 5.80091 41.6828 0.725911C41.5406 0.179036 40.9062 -0.138151 40.3703 0.0587238L18.2547 8.33841C3.92656 13.49 0 26.1228 0 43.6118V52.4931C0 54.429 1.56406 55.9931 3.5 55.9931H29.3344C31.9375 55.9931 33.6328 53.2587 32.4625 50.929L28 41.9931V41.9165C23.0125 41.5337 18.7469 38.5587 16.5922 34.304C16.4172 33.965 16.4937 33.5493 16.7672 33.2868L18.0906 31.9634C18.5172 31.5368 19.25 31.6681 19.5016 32.2259C21.1203 35.9118 24.7734 38.504 29.0609 38.504C30.9422 38.504 32.6703 37.9462 34.1797 37.0603L39.2109 44.0493C39.8672 44.9681 40.9281 45.504 42.0547 45.504H47.5562C48.4859 45.504 49.3719 45.1321 50.0281 44.4759L54.9828 40.1228C55.9563 39.1275 56.2625 37.6509 55.7594 36.3603ZM35.875 24.4931C34.4203 24.4931 33.25 23.3228 33.25 21.8681C33.25 20.4134 34.4203 19.2431 35.875 19.2431C37.3297 19.2431 38.5 20.4134 38.5 21.8681C38.5 23.3228 37.3297 24.4931 35.875 24.4931Z" fill="white"/>
</svg>
