<svg width="24" height="24" viewBox="0 0 24 24" fill="none" xmlns="http://www.w3.org/2000/svg">
<path d="M13 19C16.771 19 18.657 19 19.828 17.828C21 16.657 21 14.771 21 11C21 7.229 21 5.343 19.828 4.172C18.657 3 16.771 3 13 3H9C5.229 3 3.343 3 2.172 4.172C1 5.343 1 7.229 1 11C1 14.771 1 16.657 2.172 17.828C2.825 18.482 3.7 18.771 5 18.898" stroke="#818181" stroke-width="2" stroke-linecap="round" stroke-linejoin="round"/>
<path d="M14 19C12.764 19 11.402 19.5 10.159 20.145C8.161 21.182 7.162 21.701 6.67 21.37C6.178 21.04 6.271 20.015 6.458 17.966L6.5 17.5" stroke="#818181" stroke-width="2" stroke-linecap="round"/>
</svg>
