<svg width="32" height="32" viewBox="0 0 32 32" fill="none" xmlns="http://www.w3.org/2000/svg">
<rect width="32" height="32" rx="16" fill="#39B9B9" fill-opacity="0.4"/>
<path d="M23.7 10.1667C23.7 9.85725 23.5841 9.5605 23.3778 9.34171C23.1715 9.12292 22.8917 9 22.6 9H14.9667C14.3223 9 13.8 9.52233 13.8 10.1667C13.8 10.811 14.3223 11.3333 14.9667 11.3333H21.5V17.1667H18.2L22.5659 23L27 17.1667H23.7V10.1667ZM8.3 21.8333C8.3 22.1428 8.41589 22.4395 8.62218 22.6583C8.82847 22.8771 9.10826 23 9.4 23H17.0333C17.6777 23 18.2 22.4777 18.2 21.8333C18.2 21.189 17.6777 20.6667 17.0333 20.6667H10.5V14.8333H13.8L9.4 9L5 14.8333H8.3V21.8333Z" fill="#818181"/>
</svg>
