<svg width="24" height="24" viewBox="0 0 24 24" fill="none" xmlns="http://www.w3.org/2000/svg">
<path d="M19.7 7.16667C19.7 6.85725 19.5841 6.5605 19.3778 6.34171C19.1715 6.12292 18.8917 6 18.6 6H10.9667C10.3223 6 9.8 6.52233 9.8 7.16667C9.8 7.811 10.3223 8.33333 10.9667 8.33333H17.5V14.1667H14.2L18.5659 20L23 14.1667H19.7V7.16667ZM4.3 18.8333C4.3 19.1428 4.41589 19.4395 4.62218 19.6583C4.82847 19.8771 5.10826 20 5.4 20H13.0333C13.6777 20 14.2 19.4777 14.2 18.8333C14.2 18.189 13.6777 17.6667 13.0333 17.6667H6.5V11.8333H9.8L5.4 6L1 11.8333H4.3V18.8333Z" fill="#818181"/>
</svg>
